<svg width="68" height="45" viewBox="0 0 68 45" fill="none" xmlns="http://www.w3.org/2000/svg">
<g clip-path="url(#clip0)">
<mask id="path-1-outside-1" maskUnits="userSpaceOnUse" x="-1" y="-1" width="49" height="47" fill="black">
<rect fill="white" x="-1" y="-1" width="49" height="47"/>
<path d="M44.2918 32.6337C42.9919 32.1668 39.0803 30.7302 39.0803 30.7302C39.1042 30.4789 39.0207 30.2275 38.8418 30.0479L37.1722 28.2881V25.3432C37.3511 25.1995 37.5181 25.0439 37.685 24.8883C39.7839 22.913 40.9884 20.1237 40.9884 17.2267V14.8683C41.6205 13.4796 41.9425 12.0192 41.9425 10.4988V0.897845C41.9425 0.407023 41.537 0 41.0481 0H27.6675C22.9569 0 19.1168 3.84278 19.1168 8.5834V10.4988C19.1168 12.0072 19.4388 13.4796 20.0709 14.8683V16.8915C20.0709 20.2434 21.5616 23.2721 23.899 25.2594V28.2761L22.2294 30.0359C22.0505 30.2275 21.967 30.4789 21.9909 30.7183L16.4932 32.7294C16.0996 32.8731 15.718 33.0766 15.3841 33.316L14.5254 32.8851C17.1014 31.7598 17.9123 30.1796 17.9481 30.0958C18.0793 29.8444 18.0793 29.5451 17.9481 29.2937C17.3041 28.0008 17.2206 25.6305 17.161 23.7151C17.1371 23.0806 17.1252 22.482 17.0775 21.9433C16.7675 17.6337 13.5118 14.3895 9.49281 14.3895C5.47387 14.3895 2.20624 17.6337 1.9081 21.9433C1.87233 22.482 1.84847 23.0806 1.82462 23.7151C1.76499 25.6185 1.68152 27.9888 1.03753 29.2937C0.906349 29.5451 0.906349 29.8444 1.03753 30.0958C1.07331 30.1796 1.88425 31.7478 4.47212 32.8731L2.07506 34.0822C0.799018 34.7287 0 36.0215 0 37.4701V44.1022C0 44.593 0.405472 45 0.894423 45C1.38337 45 1.78885 44.593 1.78885 44.1022V37.4701C1.78885 36.7159 2.20624 36.0335 2.886 35.6983L5.87934 34.2019L6.91687 35.1955C7.64434 35.8899 8.57453 36.237 9.50473 36.237C10.4349 36.237 11.3651 35.8899 12.0926 35.1955L13.1301 34.2019L14.108 34.6927C13.6549 35.435 13.3925 36.2969 13.3925 37.1947V44.1022C13.3925 44.593 13.798 45 14.2869 45C14.7759 45 15.1813 44.593 15.1813 44.1022V37.1947C15.1813 35.9617 15.9565 34.8484 17.1133 34.4294L22.9211 32.3105L25.342 35.9497C25.6521 36.4166 26.141 36.7159 26.7015 36.7638C26.7611 36.7757 26.8208 36.7757 26.8804 36.7757C27.3693 36.7757 27.8344 36.5842 28.1922 36.237L29.671 34.7526V44.1022C29.671 44.593 30.0765 45 30.5654 45C31.0544 45 31.4598 44.593 31.4598 44.1022V34.7526L32.9386 36.237C33.2845 36.5842 33.7615 36.7757 34.2504 36.7757C34.3101 36.7757 34.3697 36.7757 34.4293 36.7638C34.9779 36.7039 35.4788 36.4046 35.7888 35.9497L38.2098 32.3105L44.0175 34.4294C45.1743 34.8484 45.9495 35.9617 45.9495 37.1947V44.1022C45.9495 44.593 46.355 45 46.8439 45C47.3329 45 47.7383 44.593 47.7383 44.1022V37.1947C47.7383 35.9497 47.2494 34.7765 46.4146 33.9146C46.3669 33.9026 45.3532 33.0168 44.2918 32.6337ZM5.73623 31.4485C4.06664 30.85 3.21992 30.0359 2.86215 29.593C3.10067 28.9465 3.26763 28.2163 3.37496 27.4381C3.86391 28.6233 4.6987 29.6409 5.73623 30.3591V31.4485ZM10.8643 33.8787C10.101 34.6089 8.90845 34.6089 8.14521 33.8787L7.31042 33.0886C7.45353 32.8252 7.52508 32.5259 7.52508 32.2147V31.257C8.14521 31.4485 8.81305 31.5563 9.50473 31.5563C10.1964 31.5563 10.8523 31.4485 11.4844 31.257V32.2147C11.4844 32.5259 11.5559 32.8252 11.6991 33.0886L10.8643 33.8787ZM9.50473 29.7606C6.83339 29.7606 4.66293 27.5818 4.66293 24.9002C4.66293 24.4094 4.25745 24.0024 3.7685 24.0024C3.7208 24.0024 3.6731 24.0024 3.62539 24.0144C3.62539 23.9425 3.62539 23.8587 3.63732 23.7869C3.66117 23.1644 3.6731 22.5898 3.70887 22.087C3.82813 20.4709 4.46019 18.9864 5.52157 17.897C6.58295 16.7957 8.0021 16.1971 9.51666 16.1971C11.0312 16.1971 12.4504 16.7957 13.5118 17.897C14.5612 18.9864 15.2052 20.4709 15.3244 22.087C15.3602 22.5898 15.3841 23.1644 15.396 23.7869C15.396 23.8348 15.396 23.8947 15.396 23.9425C14.4181 22.4342 12.9155 21.3328 10.9835 20.6983C9.19467 20.1237 7.64433 20.1596 7.58471 20.1596C7.34619 20.1716 7.13153 20.2674 6.96457 20.435L5.35461 22.1109C5.00877 22.4701 5.02069 23.0327 5.37846 23.3799C5.73623 23.7271 6.29674 23.7151 6.64258 23.3559L7.99018 21.9553C9.14697 22.0152 12.8678 22.4461 14.3108 25.6425C13.9172 28.0128 11.9018 29.7606 9.50473 29.7606ZM13.2613 31.4605V30.3951C14.2988 29.6768 15.1336 28.6592 15.6226 27.4741C15.7299 28.2522 15.885 28.9824 16.1354 29.6169C15.7776 30.0359 14.9309 30.85 13.2613 31.4605ZM21.8716 16.8915V14.6648C21.8716 14.5331 21.8358 14.4014 21.7881 14.2698C21.2157 13.0726 20.9176 11.8037 20.9176 10.4988V8.5834C20.9176 4.84836 23.9467 1.79569 27.6794 1.79569H40.1775V10.4988C40.1775 11.8037 39.8913 13.0726 39.3069 14.2698C39.2473 14.3895 39.2234 14.5211 39.2234 14.6648V17.2267C39.2234 19.6568 38.2455 21.9074 36.4805 23.5714C36.2539 23.7749 36.0274 23.9785 35.7888 24.158L35.7769 24.17C34.1193 25.427 32.0919 26.0495 29.9691 25.9058C25.4255 25.6065 21.8716 21.6441 21.8716 16.8915ZM26.9042 34.9561C26.8923 34.9681 26.8804 34.98 26.8565 34.9681C26.8327 34.9681 26.8208 34.9441 26.8088 34.9441L24.0302 30.7542L24.9246 29.8085L29.1463 32.7055L26.9042 34.9561ZM30.5416 31.4844L25.6998 28.1564V26.4804C26.9519 27.1628 28.3592 27.5818 29.8499 27.6776C30.0884 27.6895 30.315 27.7015 30.5535 27.7015C32.2589 27.7015 33.9046 27.2945 35.3834 26.5164V28.1564L30.5416 31.4844ZM34.2743 34.9441C34.2743 34.9561 34.2624 34.9681 34.2266 34.9681C34.2027 34.9681 34.1789 34.9561 34.1789 34.9561L31.9369 32.7055L36.1585 29.8085L37.053 30.7542L34.2743 34.9441Z"/>
</mask>
<path d="M44.2918 32.6337C42.9919 32.1668 39.0803 30.7302 39.0803 30.7302C39.1042 30.4789 39.0207 30.2275 38.8418 30.0479L37.1722 28.2881V25.3432C37.3511 25.1995 37.5181 25.0439 37.685 24.8883C39.7839 22.913 40.9884 20.1237 40.9884 17.2267V14.8683C41.6205 13.4796 41.9425 12.0192 41.9425 10.4988V0.897845C41.9425 0.407023 41.537 0 41.0481 0H27.6675C22.9569 0 19.1168 3.84278 19.1168 8.5834V10.4988C19.1168 12.0072 19.4388 13.4796 20.0709 14.8683V16.8915C20.0709 20.2434 21.5616 23.2721 23.899 25.2594V28.2761L22.2294 30.0359C22.0505 30.2275 21.967 30.4789 21.9909 30.7183L16.4932 32.7294C16.0996 32.8731 15.718 33.0766 15.3841 33.316L14.5254 32.8851C17.1014 31.7598 17.9123 30.1796 17.9481 30.0958C18.0793 29.8444 18.0793 29.5451 17.9481 29.2937C17.3041 28.0008 17.2206 25.6305 17.161 23.7151C17.1371 23.0806 17.1252 22.482 17.0775 21.9433C16.7675 17.6337 13.5118 14.3895 9.49281 14.3895C5.47387 14.3895 2.20624 17.6337 1.9081 21.9433C1.87233 22.482 1.84847 23.0806 1.82462 23.7151C1.76499 25.6185 1.68152 27.9888 1.03753 29.2937C0.906349 29.5451 0.906349 29.8444 1.03753 30.0958C1.07331 30.1796 1.88425 31.7478 4.47212 32.8731L2.07506 34.0822C0.799018 34.7287 0 36.0215 0 37.4701V44.1022C0 44.593 0.405472 45 0.894423 45C1.38337 45 1.78885 44.593 1.78885 44.1022V37.4701C1.78885 36.7159 2.20624 36.0335 2.886 35.6983L5.87934 34.2019L6.91687 35.1955C7.64434 35.8899 8.57453 36.237 9.50473 36.237C10.4349 36.237 11.3651 35.8899 12.0926 35.1955L13.1301 34.2019L14.108 34.6927C13.6549 35.435 13.3925 36.2969 13.3925 37.1947V44.1022C13.3925 44.593 13.798 45 14.2869 45C14.7759 45 15.1813 44.593 15.1813 44.1022V37.1947C15.1813 35.9617 15.9565 34.8484 17.1133 34.4294L22.9211 32.3105L25.342 35.9497C25.6521 36.4166 26.141 36.7159 26.7015 36.7638C26.7611 36.7757 26.8208 36.7757 26.8804 36.7757C27.3693 36.7757 27.8344 36.5842 28.1922 36.237L29.671 34.7526V44.1022C29.671 44.593 30.0765 45 30.5654 45C31.0544 45 31.4598 44.593 31.4598 44.1022V34.7526L32.9386 36.237C33.2845 36.5842 33.7615 36.7757 34.2504 36.7757C34.3101 36.7757 34.3697 36.7757 34.4293 36.7638C34.9779 36.7039 35.4788 36.4046 35.7888 35.9497L38.2098 32.3105L44.0175 34.4294C45.1743 34.8484 45.9495 35.9617 45.9495 37.1947V44.1022C45.9495 44.593 46.355 45 46.8439 45C47.3329 45 47.7383 44.593 47.7383 44.1022V37.1947C47.7383 35.9497 47.2494 34.7765 46.4146 33.9146C46.3669 33.9026 45.3532 33.0168 44.2918 32.6337ZM5.73623 31.4485C4.06664 30.85 3.21992 30.0359 2.86215 29.593C3.10067 28.9465 3.26763 28.2163 3.37496 27.4381C3.86391 28.6233 4.6987 29.6409 5.73623 30.3591V31.4485ZM10.8643 33.8787C10.101 34.6089 8.90845 34.6089 8.14521 33.8787L7.31042 33.0886C7.45353 32.8252 7.52508 32.5259 7.52508 32.2147V31.257C8.14521 31.4485 8.81305 31.5563 9.50473 31.5563C10.1964 31.5563 10.8523 31.4485 11.4844 31.257V32.2147C11.4844 32.5259 11.5559 32.8252 11.6991 33.0886L10.8643 33.8787ZM9.50473 29.7606C6.83339 29.7606 4.66293 27.5818 4.66293 24.9002C4.66293 24.4094 4.25745 24.0024 3.7685 24.0024C3.7208 24.0024 3.6731 24.0024 3.62539 24.0144C3.62539 23.9425 3.62539 23.8587 3.63732 23.7869C3.66117 23.1644 3.6731 22.5898 3.70887 22.087C3.82813 20.4709 4.46019 18.9864 5.52157 17.897C6.58295 16.7957 8.0021 16.1971 9.51666 16.1971C11.0312 16.1971 12.4504 16.7957 13.5118 17.897C14.5612 18.9864 15.2052 20.4709 15.3244 22.087C15.3602 22.5898 15.3841 23.1644 15.396 23.7869C15.396 23.8348 15.396 23.8947 15.396 23.9425C14.4181 22.4342 12.9155 21.3328 10.9835 20.6983C9.19467 20.1237 7.64433 20.1596 7.58471 20.1596C7.34619 20.1716 7.13153 20.2674 6.96457 20.435L5.35461 22.1109C5.00877 22.4701 5.02069 23.0327 5.37846 23.3799C5.73623 23.7271 6.29674 23.7151 6.64258 23.3559L7.99018 21.9553C9.14697 22.0152 12.8678 22.4461 14.3108 25.6425C13.9172 28.0128 11.9018 29.7606 9.50473 29.7606ZM13.2613 31.4605V30.3951C14.2988 29.6768 15.1336 28.6592 15.6226 27.4741C15.7299 28.2522 15.885 28.9824 16.1354 29.6169C15.7776 30.0359 14.9309 30.85 13.2613 31.4605ZM21.8716 16.8915V14.6648C21.8716 14.5331 21.8358 14.4014 21.7881 14.2698C21.2157 13.0726 20.9176 11.8037 20.9176 10.4988V8.5834C20.9176 4.84836 23.9467 1.79569 27.6794 1.79569H40.1775V10.4988C40.1775 11.8037 39.8913 13.0726 39.3069 14.2698C39.2473 14.3895 39.2234 14.5211 39.2234 14.6648V17.2267C39.2234 19.6568 38.2455 21.9074 36.4805 23.5714C36.2539 23.7749 36.0274 23.9785 35.7888 24.158L35.7769 24.17C34.1193 25.427 32.0919 26.0495 29.9691 25.9058C25.4255 25.6065 21.8716 21.6441 21.8716 16.8915ZM26.9042 34.9561C26.8923 34.9681 26.8804 34.98 26.8565 34.9681C26.8327 34.9681 26.8208 34.9441 26.8088 34.9441L24.0302 30.7542L24.9246 29.8085L29.1463 32.7055L26.9042 34.9561ZM30.5416 31.4844L25.6998 28.1564V26.4804C26.9519 27.1628 28.3592 27.5818 29.8499 27.6776C30.0884 27.6895 30.315 27.7015 30.5535 27.7015C32.2589 27.7015 33.9046 27.2945 35.3834 26.5164V28.1564L30.5416 31.4844ZM34.2743 34.9441C34.2743 34.9561 34.2624 34.9681 34.2266 34.9681C34.2027 34.9681 34.1789 34.9561 34.1789 34.9561L31.9369 32.7055L36.1585 29.8085L37.053 30.7542L34.2743 34.9441Z" fill="#FF8617"/>
<path d="M44.2918 32.6337C42.9919 32.1668 39.0803 30.7302 39.0803 30.7302C39.1042 30.4789 39.0207 30.2275 38.8418 30.0479L37.1722 28.2881V25.3432C37.3511 25.1995 37.5181 25.0439 37.685 24.8883C39.7839 22.913 40.9884 20.1237 40.9884 17.2267V14.8683C41.6205 13.4796 41.9425 12.0192 41.9425 10.4988V0.897845C41.9425 0.407023 41.537 0 41.0481 0H27.6675C22.9569 0 19.1168 3.84278 19.1168 8.5834V10.4988C19.1168 12.0072 19.4388 13.4796 20.0709 14.8683V16.8915C20.0709 20.2434 21.5616 23.2721 23.899 25.2594V28.2761L22.2294 30.0359C22.0505 30.2275 21.967 30.4789 21.9909 30.7183L16.4932 32.7294C16.0996 32.8731 15.718 33.0766 15.3841 33.316L14.5254 32.8851C17.1014 31.7598 17.9123 30.1796 17.9481 30.0958C18.0793 29.8444 18.0793 29.5451 17.9481 29.2937C17.3041 28.0008 17.2206 25.6305 17.161 23.7151C17.1371 23.0806 17.1252 22.482 17.0775 21.9433C16.7675 17.6337 13.5118 14.3895 9.49281 14.3895C5.47387 14.3895 2.20624 17.6337 1.9081 21.9433C1.87233 22.482 1.84847 23.0806 1.82462 23.7151C1.76499 25.6185 1.68152 27.9888 1.03753 29.2937C0.906349 29.5451 0.906349 29.8444 1.03753 30.0958C1.07331 30.1796 1.88425 31.7478 4.47212 32.8731L2.07506 34.0822C0.799018 34.7287 0 36.0215 0 37.4701V44.1022C0 44.593 0.405472 45 0.894423 45C1.38337 45 1.78885 44.593 1.78885 44.1022V37.4701C1.78885 36.7159 2.20624 36.0335 2.886 35.6983L5.87934 34.2019L6.91687 35.1955C7.64434 35.8899 8.57453 36.237 9.50473 36.237C10.4349 36.237 11.3651 35.8899 12.0926 35.1955L13.1301 34.2019L14.108 34.6927C13.6549 35.435 13.3925 36.2969 13.3925 37.1947V44.1022C13.3925 44.593 13.798 45 14.2869 45C14.7759 45 15.1813 44.593 15.1813 44.1022V37.1947C15.1813 35.9617 15.9565 34.8484 17.1133 34.4294L22.9211 32.3105L25.342 35.9497C25.6521 36.4166 26.141 36.7159 26.7015 36.7638C26.7611 36.7757 26.8208 36.7757 26.8804 36.7757C27.3693 36.7757 27.8344 36.5842 28.1922 36.237L29.671 34.7526V44.1022C29.671 44.593 30.0765 45 30.5654 45C31.0544 45 31.4598 44.593 31.4598 44.1022V34.7526L32.9386 36.237C33.2845 36.5842 33.7615 36.7757 34.2504 36.7757C34.3101 36.7757 34.3697 36.7757 34.4293 36.7638C34.9779 36.7039 35.4788 36.4046 35.7888 35.9497L38.2098 32.3105L44.0175 34.4294C45.1743 34.8484 45.9495 35.9617 45.9495 37.1947V44.1022C45.9495 44.593 46.355 45 46.8439 45C47.3329 45 47.7383 44.593 47.7383 44.1022V37.1947C47.7383 35.9497 47.2494 34.7765 46.4146 33.9146C46.3669 33.9026 45.3532 33.0168 44.2918 32.6337ZM5.73623 31.4485C4.06664 30.85 3.21992 30.0359 2.86215 29.593C3.10067 28.9465 3.26763 28.2163 3.37496 27.4381C3.86391 28.6233 4.6987 29.6409 5.73623 30.3591V31.4485ZM10.8643 33.8787C10.101 34.6089 8.90845 34.6089 8.14521 33.8787L7.31042 33.0886C7.45353 32.8252 7.52508 32.5259 7.52508 32.2147V31.257C8.14521 31.4485 8.81305 31.5563 9.50473 31.5563C10.1964 31.5563 10.8523 31.4485 11.4844 31.257V32.2147C11.4844 32.5259 11.5559 32.8252 11.6991 33.0886L10.8643 33.8787ZM9.50473 29.7606C6.83339 29.7606 4.66293 27.5818 4.66293 24.9002C4.66293 24.4094 4.25745 24.0024 3.7685 24.0024C3.7208 24.0024 3.6731 24.0024 3.62539 24.0144C3.62539 23.9425 3.62539 23.8587 3.63732 23.7869C3.66117 23.1644 3.6731 22.5898 3.70887 22.087C3.82813 20.4709 4.46019 18.9864 5.52157 17.897C6.58295 16.7957 8.0021 16.1971 9.51666 16.1971C11.0312 16.1971 12.4504 16.7957 13.5118 17.897C14.5612 18.9864 15.2052 20.4709 15.3244 22.087C15.3602 22.5898 15.3841 23.1644 15.396 23.7869C15.396 23.8348 15.396 23.8947 15.396 23.9425C14.4181 22.4342 12.9155 21.3328 10.9835 20.6983C9.19467 20.1237 7.64433 20.1596 7.58471 20.1596C7.34619 20.1716 7.13153 20.2674 6.96457 20.435L5.35461 22.1109C5.00877 22.4701 5.02069 23.0327 5.37846 23.3799C5.73623 23.7271 6.29674 23.7151 6.64258 23.3559L7.99018 21.9553C9.14697 22.0152 12.8678 22.4461 14.3108 25.6425C13.9172 28.0128 11.9018 29.7606 9.50473 29.7606ZM13.2613 31.4605V30.3951C14.2988 29.6768 15.1336 28.6592 15.6226 27.4741C15.7299 28.2522 15.885 28.9824 16.1354 29.6169C15.7776 30.0359 14.9309 30.85 13.2613 31.4605ZM21.8716 16.8915V14.6648C21.8716 14.5331 21.8358 14.4014 21.7881 14.2698C21.2157 13.0726 20.9176 11.8037 20.9176 10.4988V8.5834C20.9176 4.84836 23.9467 1.79569 27.6794 1.79569H40.1775V10.4988C40.1775 11.8037 39.8913 13.0726 39.3069 14.2698C39.2473 14.3895 39.2234 14.5211 39.2234 14.6648V17.2267C39.2234 19.6568 38.2455 21.9074 36.4805 23.5714C36.2539 23.7749 36.0274 23.9785 35.7888 24.158L35.7769 24.17C34.1193 25.427 32.0919 26.0495 29.9691 25.9058C25.4255 25.6065 21.8716 21.6441 21.8716 16.8915ZM26.9042 34.9561C26.8923 34.9681 26.8804 34.98 26.8565 34.9681C26.8327 34.9681 26.8208 34.9441 26.8088 34.9441L24.0302 30.7542L24.9246 29.8085L29.1463 32.7055L26.9042 34.9561ZM30.5416 31.4844L25.6998 28.1564V26.4804C26.9519 27.1628 28.3592 27.5818 29.8499 27.6776C30.0884 27.6895 30.315 27.7015 30.5535 27.7015C32.2589 27.7015 33.9046 27.2945 35.3834 26.5164V28.1564L30.5416 31.4844ZM34.2743 34.9441C34.2743 34.9561 34.2624 34.9681 34.2266 34.9681C34.2027 34.9681 34.1789 34.9561 34.1789 34.9561L31.9369 32.7055L36.1585 29.8085L37.053 30.7542L34.2743 34.9441Z" stroke="#FF8617" stroke-width="0.2" mask="url(#path-1-outside-1)"/>
<path d="M4.72255 38.5813C4.2058 38.5813 3.77812 39.0109 3.77812 39.5292V44.1022C3.77812 44.6205 4.2058 45.0501 4.72255 45.0501C5.2393 45.0501 5.66697 44.6205 5.66697 44.1022V39.5292C5.66697 38.9985 5.23886 38.5813 4.72255 38.5813Z" fill="#FF8617" stroke="#FF8617" stroke-width="0.1"/>
<path d="M24.7839 10.3551C24.7839 10.3498 24.7852 10.3467 24.7862 10.3451L24.7893 10.3447C25.9442 10.1654 28.2299 9.90255 30.586 10.0578C33.3721 10.2491 35.3727 10.9418 36.5526 12.1262C36.9178 12.4928 37.5215 12.493 37.887 12.1268C38.2768 11.7601 38.2768 11.1532 37.8992 10.7864C36.1989 9.07387 33.5695 8.38716 31.0123 8.18037C28.4534 7.97343 25.9567 8.24633 24.512 8.46206C23.5808 8.59741 22.8951 9.39685 22.8951 10.3431V12.4142C22.8951 12.9324 23.3227 13.362 23.8395 13.362C24.3562 13.362 24.7839 12.9324 24.7839 12.4142V10.3551Z" fill="#FF8617" stroke="#FF8617" stroke-width="0.1"/>
<path d="M20.0233 39.3118C19.5066 39.3118 19.0789 39.7414 19.0789 40.2597V44.1024C19.0789 44.6207 19.5066 45.0503 20.0233 45.0503C20.5401 45.0503 20.9678 44.6207 20.9678 44.1024V40.2597C20.9678 39.729 20.5396 39.3118 20.0233 39.3118Z" fill="#FF8617" stroke="#FF8617" stroke-width="0.1"/>
<path d="M41.0599 39.3118C40.5432 39.3118 40.1155 39.7414 40.1155 40.2597V44.1024C40.1155 44.6207 40.5432 45.0503 41.0599 45.0503C41.5767 45.0503 42.0044 44.6207 42.0044 44.1024V40.2597C42.0044 39.729 41.5763 39.3118 41.0599 39.3118Z" fill="#FF8617" stroke="#FF8617" stroke-width="0.1"/>
<path d="M56.5991 12.0069L56.5753 11.983M56.5991 12.0069C58.865 14.2336 61.5363 15.3589 64.9709 15.5504M56.5991 12.0069L56.6342 11.9712M56.5991 12.0069L56.6345 11.9716L56.6342 11.9712M56.5753 11.983L67.9762 19.5967C67.9642 19.3094 67.9523 18.9981 67.9523 18.6629C67.9285 17.0109 66.6166 15.6342 64.9709 15.5504M56.5753 11.983C55.8359 11.3006 54.7149 11.3006 53.9755 11.983M56.5753 11.983H53.9755M64.9709 15.5504L64.9737 15.5005C64.9736 15.5005 64.9736 15.5005 64.9736 15.5005M64.9709 15.5504L64.9734 15.5005C64.9735 15.5005 64.9735 15.5005 64.9736 15.5005M64.9736 15.5005C61.55 15.3095 58.8905 14.1886 56.6342 11.9712M64.9736 15.5005C66.6459 15.5857 67.9781 16.9842 68.0023 18.6622L68.0023 18.6629C68.0023 18.997 68.0142 19.3074 68.0261 19.5946L68.0262 19.5967H68.0262V19.6201L68.0262 19.6198L53.9167 11.9712M56.6342 11.9712L56.6107 11.9477L56.6107 11.9476L56.6092 11.9462C55.8506 11.2462 54.7001 11.2462 53.9416 11.9462L53.9415 11.9462L53.94 11.9477L53.9167 11.9712M53.9167 11.9712L53.9516 12.0069M53.9167 11.9712L53.9755 11.983M53.9755 11.983L53.9516 12.0069M53.9164 11.9714C51.6481 14.1887 49.0005 15.3096 45.577 15.5005L45.5769 15.5005C43.9051 15.5978 42.5727 16.9839 42.5484 18.6622H42.5484V18.6629C42.5484 18.997 42.5365 19.3074 42.5246 19.5946L42.5246 19.5946V19.5967V19.656C42.453 23.1741 42.3689 27.5648 43.8395 31.5493L53.9164 11.9714ZM53.9164 11.9714L53.9162 11.9716L53.9516 12.0069M53.9164 11.9714L42.5746 19.5967C42.5865 19.3094 42.5984 18.9981 42.5984 18.6629C42.6223 17.0109 43.9341 15.6462 45.5798 15.5504C49.0144 15.3589 51.6738 14.2336 53.9516 12.0069M55.335 39.6808V39.6823C55.3394 39.6823 55.3455 39.6812 55.3555 39.6783C55.3592 39.6772 55.366 39.6752 55.371 39.6739C55.3739 39.6731 55.3784 39.672 55.3838 39.6712C60.2943 37.9511 63.428 35.0762 64.9597 30.9043C64.9597 30.9043 64.9597 30.9043 64.9597 30.9043L65.0067 30.9215C66.3543 27.2463 66.2827 23.224 66.1635 19.6565L55.335 39.6808ZM55.335 39.6808L55.3228 39.6838C55.2831 39.6938 55.2318 39.6938 55.1921 39.6838L55.1925 39.6823H55.18C55.177 39.6823 55.1749 39.6819 55.166 39.6789L55.165 39.6786C55.1574 39.6761 55.1454 39.672 55.1299 39.6708C50.2082 37.9506 47.0749 35.0758 45.5433 30.9043L45.5433 30.9042C44.2139 27.2905 44.2806 23.3248 44.3399 19.7961C44.3406 19.7578 44.3412 19.7195 44.3419 19.6813V19.6805V19.6575M55.335 39.6808L44.3419 19.6575M66.0896 18.6873C66.0896 19.0354 66.1016 19.3593 66.1135 19.6584L66.1396 18.6869M66.0896 18.6873C66.0896 18.6872 66.0896 18.687 66.0896 18.6869H66.1396M66.0896 18.6873C66.0896 18.6874 66.0896 18.6876 66.0896 18.6877L66.1396 18.6869M66.0896 18.6873C66.0779 17.9707 65.5255 17.3827 64.8134 17.3481L64.8131 17.3481C62.8643 17.2401 61.1532 16.868 59.5729 16.195L59.5727 16.1949C58.0046 15.522 56.6042 14.5847 55.3001 13.3116L55.2996 13.3112C55.2784 13.2899 55.2551 13.281 55.2321 13.281C55.209 13.281 55.1818 13.2901 55.1538 13.3131M66.1396 18.6869C66.1277 17.9447 65.5553 17.3341 64.8159 17.2982C62.872 17.1905 61.1666 16.8194 59.5924 16.149C58.0302 15.4786 56.6349 14.5448 55.335 13.2759C55.2754 13.216 55.1919 13.216 55.1203 13.2759M55.1538 13.3131C55.1543 13.3126 55.1548 13.3121 55.1553 13.3116L55.1203 13.2759M55.1538 13.3131C53.8502 14.5853 52.4621 15.5222 50.8825 16.195L50.8823 16.195C49.3142 16.8559 47.5913 17.2401 45.6425 17.3481M55.1538 13.3131C55.1533 13.3134 55.1529 13.3138 55.1524 13.3142L55.1203 13.2759M55.1203 13.2759C53.8204 14.5448 52.4371 15.4786 50.8629 16.149M45.6395 17.2982C47.5833 17.1905 49.3006 16.8074 50.8629 16.149M45.6395 17.2982C44.912 17.3461 44.3276 17.9566 44.3157 18.6869C44.3157 19.034 44.3038 19.3573 44.2919 19.6565L50.8629 16.149M45.6395 17.2982L45.6422 17.3481C45.6423 17.3481 45.6424 17.3481 45.6425 17.3481M45.6395 17.2982L45.6427 17.3481C45.6426 17.3481 45.6426 17.3481 45.6425 17.3481M50.8629 16.149L45.6425 17.3481M44.3419 19.6575C44.3538 19.3586 44.3657 19.035 44.3657 18.6873C44.3657 18.6874 44.3657 18.6876 44.3657 18.6877L44.3419 19.6575ZM68.0273 19.6867L68.0262 19.6206L54.858 41.4682C55.0011 41.4921 55.1442 41.5161 55.2754 41.5161C55.4185 41.5161 55.5616 41.5041 55.6928 41.4682L55.7049 41.5167C55.7051 41.5166 55.7053 41.5166 55.7054 41.5166C55.7183 41.5133 55.7316 41.51 55.7451 41.5067C55.8283 41.4862 55.9216 41.4633 55.9971 41.431C58.876 40.4235 61.2554 39.0076 63.074 37.2182C64.6774 35.6446 65.8979 33.7468 66.6994 31.5492C68.1607 27.5778 68.0868 23.2053 68.0273 19.6867Z" fill="#FF8617" stroke="#FF8617" stroke-width="0.1"/>
<path d="M55.2633 18.9603C51.1212 18.9603 47.7598 22.3348 47.7598 26.4923C47.7598 30.6498 51.1212 34.0243 55.2633 34.0243C59.4055 34.0243 62.7668 30.6498 62.7668 26.4923C62.7668 22.3348 59.4055 18.9603 55.2633 18.9603ZM55.2633 32.1646C52.1428 32.1646 49.6129 29.6253 49.6129 26.4923C49.6129 23.3593 52.1428 20.82 55.2633 20.82C58.3839 20.82 60.9138 23.3593 60.9138 26.4923C60.9138 29.6252 58.372 32.1646 55.2633 32.1646Z" fill="#FF8617" stroke="#FF8617" stroke-width="0.1"/>
<path d="M58.6857 24.1343C58.3207 23.7679 57.7282 23.7669 57.3742 24.1346L53.9515 27.5704L53.0448 26.6602C52.6795 26.2934 52.0991 26.2934 51.7337 26.6602C51.3684 27.0269 51.3684 27.6091 51.7337 27.9758L53.296 29.544C53.4719 29.7207 53.7111 29.8221 53.9515 29.8221C54.1901 29.8221 54.4303 29.7339 54.6077 29.5434L58.6857 25.4499C59.0509 25.0832 59.0509 24.5009 58.6857 24.1343Z" fill="#FF8617" stroke="#FF8617" stroke-width="0.1"/>
</g>
<defs>
<clipPath id="clip0">
<rect width="68" height="45" fill="white"/>
</clipPath>
</defs>
</svg>
